<svg xmlns="http://www.w3.org/2000/svg" viewBox="0 0 7509.33 8192" width="7509.330078125" height="8192"><defs><style>.cls-1{fill:#da1e28;}</style></defs><g id="Layer_2" data-name="Layer 2"><g id="Layer_1-2" data-name="Layer 1"><g id="Layer_2-2" data-name="Layer 2"><g id="Layer_1-2-2" data-name="Layer 1-2"><path class="cls-1 svg-elem-1" d="M7509.33,2730.67V8192H0V0H7509.33V682.67c-3.49.74-7,2-10.47,2.13-10.91.3-21.84.18-32.76.18H2100.51c-10,0-20,0-30,.08a79.39,79.39,0,0,0-8.12.79c-3.46.4-6.84,3.73-6.92,7.23-.28,10.91-.55,21.82-.55,32.73q0,2005.61,0,4011.21c0,9.11,0,18.21.05,27.31,0,2.72.24,5.45.45,8.17.25,3.2,3.84,7.19,7,7.29,10.9.38,21.79.8,32.69.8q1321.61,0,2643.2,0c10,0,20-.07,30,.05,15.6.19,17,1.61,17.24,17.14.11,7.28,0,14.57,0,21.85V5303q0,744.07,0,1488.16c0,10-.27,20-.51,30-.08,3.49-3.41,7-6.71,7.12-11.82.3-23.64.68-35.46.68q-1529.11,0-3058.24,0-139.26,0-278.52,0-12.28,0-24.57-.41c-4.75-.16-8.82-4.05-9-8.43-.25-5.45-.43-10.91-.43-16.36q0-316.76,0-633.5c0-5.44.29-10.89.57-16.33.18-3.41,3.57-7,7-7.11,10.9-.39,21.8-.83,32.7-.83q1324.32-.06,2648.66-.05,16.36,0,32.75-.37c5.25-.11,8.36-3.23,8.57-8.34.21-5.45.37-10.91.37-16.37q0-316.74,0-633.49c0-5.45-.31-10.89-.6-16.33-.17-3-4.07-6.73-7.35-6.81-10.91-.27-21.83-.56-32.74-.56q-1323,0-2645.93-.15c-13.51,0-27.34,2.68-40.52-2.42-3.69-1.43-3.5-1.94-3.5-42.72V2349.21q0-812.34,0-1624.69,0-15-.29-30c-.12-5.15-3.49-8.81-8.24-9-8.18-.3-16.37-.5-24.55-.51q-92.85-.06-185.68,0-214.35,0-428.7,0c-9.08,0-18.17.42-27.24.8-3.48.15-7.06,3.65-7.15,7-.29,10.9-.62,21.81-.62,32.72q0,3370.89.11,6741.79c0,13.43-2.86,27.18,2.47,40.34,13.71,7,28.42,3.48,42.61,3.49q2342.84.27,4685.67.17c7.28,0,14.56,0,21.84,0,4.55,0,9.11,0,13.66-.15,9.07-.26,11.83-2.67,12-10.83.17-10.92.16-21.85.16-32.77V2091c0-8.19,0-16.38,0-24.57,0-2.73-.19-5.46-.36-8.18s-4.24-7.23-7-7.31c-10-.28-20-.62-30-.62q-303.1-.06-606.19,0c-45.44,0-38.84-5-38.84,39.29q-.21,983-.1,1966c0,10,0,20-.15,30a24.55,24.55,0,0,1-1.33,7.91c-.55,1.47-2.38,3.41-3.74,3.5-10,.63-20,1.15-30,1.15q-303.09.09-606.19-.05c-48.41-.05-41.35,6.48-41.36-42.27q-.23-983-.11-1966,0-15-.29-30c-.11-5.15-3.49-8.87-8.16-9.06-7.27-.3-14.55-.51-21.82-.51q-88.74-.06-177.49,0-219.81,0-439.62,0c-9.08,0-18.16.41-27.24.77-3.49.15-7.11,3.64-7.21,6.91-.3,10-.64,20-.65,30q0,987.1-.09,1974.21c0,41.61,5.35,36-36.19,36q-299,.31-598,.09c-10,0-20,0-30-.05-3.62,0-7.24-.42-10.86-.7-3-.24-7.09-4.3-7.15-7.21-.22-10.92-.5-21.84-.5-32.75q0-1324.33.08-2648.66c0-47.87-7.37-41.57,42-41.57q1664.29-.15,3328.58-.08c9.1,0,18.2,0,27.3.08,2.73,0,5.45.34,8.17.51s6.87,4.5,6.92,7.43c.18,10.92.44,21.83.44,32.75q0,3028.21,0,6056.42c0,7.28,0,14.56,0,21.84-.15,24.85-.49,25,26,25q315.38-.09,630.76,0c4.55,0,9.1,0,13.65-.15,9.06-.26,11.78-2.66,11.91-10.89.18-10.92.16-21.84.16-32.76q0-2344.2,0-4688.4c0-9.1-.05-18.21,0-27.31,0-3.63.26-7.26.49-10.88s3.38-7.18,6.79-7.34c9.07-.42,18.15-.89,27.23-.89q303.09-.07,606.19,0c8.19,0,16.39.15,24.57-.14C7502.24,2732.35,7505.78,2731.3,7509.33,2730.67Z"></path><path class="cls-1 svg-elem-2" d="M7509.33,2048c-3.51.74-7,2-10.55,2.14-7.26.35-14.54.17-21.82.17q-304.1,0-608.19,0c-8.18,0-16.36,0-24.53-.34-5.91-.27-10.4-2.58-10.56-9.8s-.29-14.54-.29-21.81q0-80.46,0-160.91,0-227.73,0-455.46c0-9.07.39-18.15.71-27.21.11-3.14,3.85-6.61,7.35-6.74,9.07-.34,18.14-.71,27.21-.71q250.92-.06,501.83,0,58.64,0,117.27,0c7.23,0,14.57.83,21.56-1.92Z"></path></g></g></g></g></svg>
