<!--?xml version="1.0" standalone="no"?-->

<svg version="1.0" xmlns="http://www.w3.org/2000/svg" width="100%" height="100%" viewBox="0 0 11000.000000 12000.000000" preserveAspectRatio="xMidYMid meet">
<metadata>
Created by potrace 1.16, written by Peter Selinger 2001-2019
</metadata>
<g transform="translate(0.000000,12000.000000) scale(0.100000,-0.100000)" fill="#000000" stroke="none">
<path d="M0 60000 l0 -60000 55000 0 55000 0 0 40000 0 40000 -5000 0 -5000 0
0 -35000 0 -35000 -5000 0 -5000 0 0 45000 0 45000 -25000 0 -25000 0 0
-20000 0 -20000 5000 0 5000 0 0 15000 0 15000 5000 0 5000 0 0 -15000 0
-15000 5000 0 5000 0 0 15000 0 15000 5000 0 5000 0 0 -40000 0 -40000 -35000
0 -35000 0 0 50000 0 50000 5000 0 5000 0 0 -35000 0 -35000 20000 0 20000 0
0 -5000 0 -5000 -20000 0 -20000 0 0 -5000 0 -5000 25000 0 25000 0 0 15000 0
15000 -20000 0 -20000 0 0 30000 0 30000 40000 0 40000 0 0 5000 0 5000
-55000 0 -55000 0 0 -60000z" class="-1"></path>
<path d="M100000 95000 l0 -5000 5000 0 5000 0 0 5000 0 5000 -5000 0 -5000 0
0 -5000z" class="-2"></path>
</g>
</svg>
