<svg xmlns="http://www.w3.org/2000/svg" viewBox="0 0 7509.33 8192" width="7509.330078125" height="8192"><defs><style>.cls-1{fill:#da1e28;}.cls-2{fill:#fff;}</style></defs><g id="Layer_2" data-name="Layer 2"><g id="Layer_1-2" data-name="Layer 1"><g id="Layer_2-2" data-name="Layer 2"><g id="Layer_1-2-2" data-name="Layer 1-2"><path class="cls-1 svg-elem-1" d="M7509.33,2730.67V8192H0V0H7509.33V682.67c-3.49.74-7,2-10.47,2.13-10.91.3-21.84.18-32.76.18H2100.51c-10,0-20,0-30,.08a79.39,79.39,0,0,0-8.12.79c-3.47.4-6.84,3.73-6.92,7.23-.28,10.91-.55,21.82-.55,32.73q0,2005.61,0,4011.21c0,9.11,0,18.21.05,27.31,0,2.72.24,5.45.45,8.17.25,3.21,3.84,7.19,7,7.29,10.9.38,21.79.8,32.69.8q1321.61,0,2643.2,0c9.1,0,18.2-.06,27.3,0,19.28.19,19.78.71,20,19.89.07,6.37,0,12.75,0,19.12v428.7q0,771.39,0,1542.77c0,10-.27,20-.51,30-.08,3.49-3.4,7-6.71,7.12-11.82.3-23.64.68-35.46.68q-1508.64,0-3017.29,0-159.74,0-319.47,0-12.28,0-24.57-.41c-4.75-.16-8.81-4-9-8.43-.25-5.45-.43-10.91-.43-16.36q0-316.76,0-633.5c0-5.44.29-10.89.57-16.33.18-3.41,3.57-7,7-7.11,10.9-.39,21.8-.83,32.7-.83q1324.32-.06,2648.66-.05,16.36,0,32.75-.37c5.26-.11,8.34-3.23,8.57-8.34.21-4.54.37-9.09.37-13.64q0-318.1,0-636.22c0-5.45-.31-10.89-.6-16.33-.17-3-4.07-6.73-7.35-6.81-10.91-.27-21.83-.56-32.74-.56q-1323,0-2645.93-.15c-13.51,0-27.34,2.69-40.52-2.42-3.7-1.43-3.5-2-3.5-42.72V2401.09q0-838.29,0-1676.57,0-15-.29-30c-.12-5.15-3.49-8.81-8.24-9-8.18-.3-16.37-.5-24.55-.51q-88.76-.06-177.49,0Q943,685,724.57,685c-9.08,0-18.17.42-27.24.8-3.49.15-7.06,3.65-7.15,7-.29,10.9-.62,21.81-.62,32.72q0,3370.89.11,6741.79c0,13.43-2.86,27.18,2.47,40.34,13.71,7,28.42,3.48,42.61,3.49q2342.84.27,4685.67.17c7.28,0,14.56,0,21.84,0,4.55,0,9.11,0,13.66-.15,9.07-.26,11.83-2.66,12-10.83.18-10.92.16-21.85.16-32.77V2091c0-8.19,0-16.38,0-24.57,0-2.73-.18-5.46-.36-8.18s-4.24-7.22-7-7.31c-9.09-.28-18.18-.62-27.27-.62q-303.11,0-606.19.06c-49.19,0-41.54-6.15-41.55,42q-.27,981.65-.12,1963.28c0,10,0,20-.15,30a24.55,24.55,0,0,1-1.33,7.91c-.55,1.47-2.38,3.41-3.74,3.5-10,.63-20,1.15-30,1.15q-303.09.09-606.19-.05c-48.41-.05-41.35,6.48-41.36-42.27q-.23-983-.11-1966,0-15-.29-30c-.11-5.16-3.48-8.89-8.16-9.06-8.18-.3-16.37-.51-24.55-.51q-86-.08-172,0-221.18,0-442.35,0c-9.08,0-18.16.41-27.24.78-3.49.14-7.11,3.63-7.21,6.9-.3,10-.64,20-.65,30q0,987.1-.09,1974.21c0,41.61,5.35,36-36.19,36q-297.63.31-595.27.09c-10.92,0-21.84,0-32.76-.05-3.62,0-7.24-.39-10.85-.71-2.92-.26-7.08-4.35-7.15-7.21-.25-10.91-.51-21.83-.51-32.74q0-1324.33.08-2648.66c0-47.87-7.37-41.57,42-41.57q1664.29-.16,3328.58-.08c9.1,0,18.2,0,27.3.08,2.73,0,5.45.29,8.17.52s6.85,4.59,6.9,7.43c.22,10.91.46,21.82.46,32.74q0,3028.21,0,6056.42c0,7.28,0,14.56,0,21.84-.15,24.84-.49,25,26,25q315.38-.09,630.76,0c4.55,0,9.1,0,13.65-.15,9.07-.27,11.78-2.65,11.91-10.89.18-10.92.16-21.84.16-32.76q0-2344.2,0-4688.4c0-9.1-.05-18.21,0-27.31,0-3.63.26-7.26.49-10.88s3.38-7.17,6.79-7.34c9.07-.42,18.15-.89,27.23-.89q303.09-.07,606.19,0c8.19,0,16.39.15,24.57-.14C7502.24,2732.35,7505.78,2731.3,7509.33,2730.67Z"></path><path class="cls-2 svg-elem-2" d="M7509.33,2730.67c-3.55.63-7.09,1.68-10.66,1.81-8.18.29-16.38.14-24.57.14q-303.11,0-606.19,0c-9.08,0-18.16.47-27.23.89-3.41.17-6.55,3.75-6.79,7.34s-.46,7.25-.49,10.88c-.07,9.1,0,18.21,0,27.31q0,2344.2,0,4688.4c0,10.92,0,21.84-.16,32.76-.13,8.24-2.84,10.62-11.91,10.89-4.55.13-9.1.15-13.65.15q-315.39,0-630.76,0c-26.52,0-26.18-.16-26-25,0-7.28,0-14.56,0-21.84q0-3028.21,0-6056.42c0-10.92-.24-21.83-.46-32.74-.05-2.84-4.26-7.21-6.9-7.43s-5.44-.5-8.17-.52c-9.1-.08-18.2-.08-27.3-.08q-1664.3,0-3328.58.08c-49.33,0-42-6.3-42,41.57q-.21,1324.33-.08,2648.66c0,10.91.26,21.83.51,32.74.07,2.86,4.23,6.95,7.15,7.21,3.61.32,7.23.68,10.85.71,10.92.1,21.84.05,32.76.05q297.64,0,595.27-.09c41.54,0,36.18,5.61,36.19-36q.15-987.1.09-1974.21c0-10,.35-20,.65-30,.1-3.27,3.72-6.76,7.21-6.9,9.08-.37,18.16-.78,27.24-.78q221.17-.07,442.35,0,86,0,172,0c8.18,0,16.37.21,24.55.51,4.68.17,8.05,3.9,8.16,9.06q.32,15,.29,30,0,983,.11,1966c0,48.75-7.05,42.22,41.36,42.27q303.09.33,606.19.05c10,0,20-.52,30-1.15,1.36-.09,3.19-2,3.74-3.5a24.55,24.55,0,0,0,1.33-7.91c.17-10,.15-20,.15-30q0-981.65.12-1963.28c0-48.14-7.64-41.95,41.55-42q303.09-.3,606.19-.06c9.09,0,18.18.34,27.27.62,2.74.09,6.8,4.48,7,7.31s.34,5.45.36,8.18c.05,8.19,0,16.38,0,24.57V7467.53c0,10.92,0,21.85-.16,32.77-.13,8.17-2.89,10.57-12,10.83-4.55.13-9.11.14-13.66.15-7.28,0-14.56,0-21.84,0q-2342.83,0-4685.67-.17c-14.19,0-28.9,3.47-42.61-3.49-5.33-13.16-2.46-26.91-2.47-40.34q-.21-3370.89-.11-6741.79c0-10.91.33-21.82.62-32.72.09-3.32,3.66-6.82,7.15-7,9.07-.38,18.16-.79,27.24-.8Q943,685,1161.46,685q88.74,0,177.49,0c8.18,0,16.37.21,24.55.51,4.75.17,8.12,3.83,8.24,9q.32,15,.29,30,0,838.29,0,1676.57V5418.38c0,40.77-.2,41.29,3.5,42.72,13.18,5.11,27,2.42,40.52,2.42q1323,.21,2645.93.15c10.91,0,21.83.29,32.74.56,3.28.08,7.18,3.77,7.35,6.81.29,5.44.6,10.88.6,16.33q0,318.1,0,636.22c0,4.55-.16,9.1-.37,13.64-.23,5.11-3.31,8.23-8.57,8.34q-16.38.35-32.75.37-1324.33,0-2648.66.05c-10.9,0-21.8.44-32.7.83-3.43.12-6.82,3.7-7,7.11-.28,5.44-.57,10.89-.57,16.33q0,316.76,0,633.5c0,5.45.18,10.91.43,16.36.2,4.39,4.26,8.27,9,8.43q12.29.42,24.57.41,159.73,0,319.47,0,1508.65,0,3017.29,0c11.82,0,23.64-.38,35.46-.68,3.31-.09,6.63-3.63,6.71-7.12.24-10,.51-20,.51-30q0-771.37,0-1542.77v-428.7c0-6.37.05-12.75,0-19.12-.21-19.18-.71-19.7-20-19.89-9.1-.09-18.2,0-27.3,0q-1321.61,0-2643.2,0c-10.9,0-21.79-.42-32.69-.8-3.12-.1-6.71-4.08-7-7.29-.21-2.72-.43-5.45-.45-8.17-.07-9.1-.05-18.2-.05-27.31q0-2005.61,0-4011.21c0-10.91.27-21.82.55-32.73.08-3.5,3.45-6.83,6.92-7.23a79.39,79.39,0,0,1,8.12-.79c10-.11,20-.08,30-.08H7466.1c10.92,0,21.85.12,32.76-.18,3.51-.1,7-1.39,10.47-2.13v682.66c-7,2.75-14.33,1.91-21.56,1.92q-55.91.12-111.82,0-253.64,0-507.28,0c-9.07,0-18.14.37-27.21.71-3.5.13-7.24,3.6-7.35,6.74-.32,9.06-.7,18.14-.7,27.21q-.08,222.27,0,444.55,0,84.54,0,169.09c0,8.18.12,16.36.29,24.54.15,7.22,4.65,9.53,10.56,9.8,8.17.37,16.35.34,24.53.34q304.09,0,608.19,0c7.28,0,14.56.18,21.82-.17,3.54-.18,7-1.4,10.55-2.14Z"></path><path class="cls-1 svg-elem-3" d="M7509.33,2048c-3.51.74-7,2-10.55,2.14-7.26.35-14.54.17-21.82.17q-304.1,0-608.19,0c-8.18,0-16.36,0-24.53-.34-5.91-.27-10.41-2.58-10.56-9.8-.17-8.18-.29-16.36-.29-24.54q0-84.54,0-169.09,0-222.29,0-444.55c0-9.07.38-18.15.7-27.21.11-3.14,3.85-6.61,7.35-6.74,9.07-.34,18.14-.71,27.21-.71q253.65-.06,507.28,0,55.92,0,111.82,0c7.23,0,14.57.83,21.56-1.92Z"></path></g></g></g></g></svg>
